<mxfile host="app.diagrams.net" modified="2023-03-10T03:48:11.508Z" agent="5.0 (Windows NT 10.0; Win64; x64) AppleWebKit/537.36 (KHTML, like Gecko) Chrome/110.0.0.0 Safari/537.36" etag="OgycthVp3VIHmLeLHC5w" version="21.0.4" type="github">
  <diagram name="Página-1" id="qdYQOTE-IAm2l3-fw2n1">
    <mxGraphModel dx="840" dy="465" grid="1" gridSize="10" guides="1" tooltips="1" connect="1" arrows="1" fold="1" page="1" pageScale="1" pageWidth="4681" pageHeight="3300" math="0" shadow="0">
      <root>
        <mxCell id="0" />
        <mxCell id="1" parent="0" />
        <mxCell id="JE3cCo6YskCNEYd2Dr8s-1" value="Patron de diseño" style="rounded=0;whiteSpace=wrap;html=1;" vertex="1" parent="1">
          <mxGeometry x="2250" y="1620" width="120" height="60" as="geometry" />
        </mxCell>
        <mxCell id="JE3cCo6YskCNEYd2Dr8s-3" value="Creacionales" style="rounded=0;whiteSpace=wrap;html=1;" vertex="1" parent="1">
          <mxGeometry x="2640" y="630" width="120" height="60" as="geometry" />
        </mxCell>
        <mxCell id="JE3cCo6YskCNEYd2Dr8s-5" style="edgeStyle=orthogonalEdgeStyle;rounded=0;orthogonalLoop=1;jettySize=auto;html=1;exitX=0.5;exitY=0;exitDx=0;exitDy=0;entryX=0.75;entryY=0;entryDx=0;entryDy=0;" edge="1" parent="1" source="JE3cCo6YskCNEYd2Dr8s-1" target="JE3cCo6YskCNEYd2Dr8s-1">
          <mxGeometry relative="1" as="geometry" />
        </mxCell>
      </root>
    </mxGraphModel>
  </diagram>
</mxfile>
